<svg id="Слой_1" data-name="Слой 1" xmlns="http://www.w3.org/2000/svg" viewBox="0 0 111.63 146.87"><defs><style>.cls-1{fill:#050505;}.cls-2{fill:#ff4000;}@media(prefers-color-scheme: dark){.cls-1{fill:#ffffff;}}</style></defs><title>HardikRounded</title><path class="cls-1" d="M1238.85,524.79a7,7,0,0,1,6.94-6.95h94.46a7,7,0,0,1,4.91,11.86L1300,574.87a7,7,0,0,0-.74,9l49.93,69.91a6.94,6.94,0,0,1-5.65,11h-97.73a7,7,0,0,1-6.94-7" transform="translate(-1238.85 -517.84)"/><path class="cls-2" d="M1283.89,598l-28.39,28.4a5.5,5.5,0,0,0-1.61,3.89v14.95a5.5,5.5,0,0,0,5.5,5.5h59.35a5.5,5.5,0,0,0,4.48-8.7l-31-43.34A5.5,5.5,0,0,0,1283.89,598Z" transform="translate(-1238.85 -517.84)"/></svg>