<svg id="Слой_1" data-name="Слой 1" xmlns="http://www.w3.org/2000/svg" viewBox="0 0 111.63 146.87"><defs><style>.cls-1{fill:#ff4000;}</style></defs><title>HardikRounded</title><path d="M1238.85,524.79a7,7,0,0,1,6.94-6.95h94.46a7,7,0,0,1,4.91,11.86L1300,574.87a7,7,0,0,0-.74,9l49.93,69.91a6.94,6.94,0,0,1-5.65,11h-97.73a7,7,0,0,1-6.94-7" transform="translate(-1238.85 -517.84)"/><path d="M1284.54,590.32l-35.85,35.85a6.92,6.92,0,0,0-2,4.91V650a7,7,0,0,0,6.95,6.94h74.94a6.94,6.94,0,0,0,5.65-11L1295.1,591.2A6.94,6.94,0,0,0,1284.54,590.32Z" transform="translate(-1238.85 -517.84)"/><path class="cls-1" d="M1284.54,590.32l-35.85,35.85a6.92,6.92,0,0,0-2,4.91V650a7,7,0,0,0,6.95,6.94h74.94a6.94,6.94,0,0,0,5.65-11L1295.1,591.2A6.94,6.94,0,0,0,1284.54,590.32Z" transform="translate(-1238.85 -517.84)"/></svg>