<svg id="Слой_1" data-name="Слой 1" xmlns="http://www.w3.org/2000/svg" xmlns:xlink="http://www.w3.org/1999/xlink" viewBox="0 0 226.51 226.51"><defs><style>.cls-1{fill:url(#Безымянный_градиент_4);}.cls-2{fill:url(#Безымянный_градиент_49);}.cls-3{fill:#4d4d4d;}</style><linearGradient id="Безымянный_градиент_4" x1="135.77" y1="98.5" x2="185.26" y2="98.5" gradientUnits="userSpaceOnUse"><stop offset="0" stop-color="#cce0f4"/><stop offset="0" stop-color="#c3dcf2"/><stop offset="0" stop-color="#c2dcf2"/><stop offset="0" stop-color="#c7def3"/><stop offset="0" stop-color="#bcdaf1"/><stop offset="0" stop-color="#a0cfec"/><stop offset="0" stop-color="#71bde5"/><stop offset="0" stop-color="#32a4da"/><stop offset="0" stop-color="#1e9cd7"/><stop offset="0" stop-color="#4d4d4d"/><stop offset="0.22" stop-color="#323232"/><stop offset="1"/></linearGradient><linearGradient id="Безымянный_градиент_49" x1="32.07" y1="92.04" x2="97.34" y2="111.38" gradientUnits="userSpaceOnUse"><stop offset="0"/><stop offset="0.78" stop-color="#323232"/><stop offset="1" stop-color="#4d4d4d"/><stop offset="1" stop-color="#1e9cd7"/><stop offset="1" stop-color="#32a4da"/><stop offset="1" stop-color="#71bde5"/><stop offset="1" stop-color="#a0cfec"/><stop offset="1" stop-color="#bcdaf1"/><stop offset="1" stop-color="#c7def3"/><stop offset="1" stop-color="#c2dcf2"/><stop offset="1" stop-color="#c3dcf2"/><stop offset="1" stop-color="#cce0f4"/></linearGradient></defs><path class="cls-1" d="M185.26,81.34a144,144,0,0,1-4.47,35.72c0,.1,0,.19-.07.28a143.41,143.41,0,0,1-13.44,33.73h0a71.5,71.5,0,0,1-18-7.36,72.41,72.41,0,0,1-13.49-10.08,106.65,106.65,0,0,0,7.34-16.29,107.84,107.84,0,0,0,6.15-36A36,36,0,0,1,178.54,46a2.42,2.42,0,0,1,2.78,1.8A143.94,143.94,0,0,1,185.26,81.34Z"/><path class="cls-2" d="M90.75,133.63a72.41,72.41,0,0,1-13.49,10.08,71.5,71.5,0,0,1-18,7.36h0A143.41,143.41,0,0,1,45.8,117.34c0-.09,0-.18-.07-.28a145,145,0,0,1-.53-69.29A2.42,2.42,0,0,1,48,46,36,36,0,0,1,77.26,81.34a107.84,107.84,0,0,0,6.15,36A106.65,106.65,0,0,0,90.75,133.63Z"/><path class="cls-3" d="M167.27,150.92c-.42.76-.85,1.52-1.28,2.27a144.06,144.06,0,0,1-16.73,23.23q-1.47,1.68-3,3.31a3.2,3.2,0,0,1-3.57.74,107.79,107.79,0,0,1-28.52-18,1.37,1.37,0,0,0-1.82,0,107.79,107.79,0,0,1-28.52,18,3.2,3.2,0,0,1-3.57-.74q-1.53-1.64-3-3.31a144.06,144.06,0,0,1-16.73-23.23c-.43-.75-.86-1.51-1.28-2.27a71.5,71.5,0,0,0,18-7.36,72.52,72.52,0,0,0,26.37-26.37c6.12-10.59,9.63-18.11,9.63-31.22,0,13.11,3.51,20.63,9.63,31.22a72.52,72.52,0,0,0,26.37,26.37A71.5,71.5,0,0,0,167.27,150.92Z"/></svg>