<svg id="Слой_1" data-name="Слой 1" xmlns="http://www.w3.org/2000/svg" xmlns:xlink="http://www.w3.org/1999/xlink" viewBox="0 0 226.51 226.51"><defs><style>.cls-1{fill:url(#Безымянный_градиент_4);}.cls-2{fill:url(#Безымянный_градиент_49);}.cls-3{fill:#4d4d4d;}</style><linearGradient id="Безымянный_градиент_4" x1="135.41" y1="99" x2="184.89" y2="99" gradientUnits="userSpaceOnUse"><stop offset="0" stop-color="#cce0f4"/><stop offset="0" stop-color="#c3dcf2"/><stop offset="0" stop-color="#c2dcf2"/><stop offset="0" stop-color="#c7def3"/><stop offset="0" stop-color="#bcdaf1"/><stop offset="0" stop-color="#a0cfec"/><stop offset="0" stop-color="#71bde5"/><stop offset="0" stop-color="#32a4da"/><stop offset="0" stop-color="#1e9cd7"/><stop offset="0" stop-color="#4d4d4d"/><stop offset="0.22" stop-color="#323232"/><stop offset="1"/></linearGradient><linearGradient id="Безымянный_градиент_49" x1="32.44" y1="92.54" x2="97.71" y2="111.88" gradientUnits="userSpaceOnUse"><stop offset="0"/><stop offset="0.78" stop-color="#323232"/><stop offset="1" stop-color="#4d4d4d"/><stop offset="1" stop-color="#1e9cd7"/><stop offset="1" stop-color="#32a4da"/><stop offset="1" stop-color="#71bde5"/><stop offset="1" stop-color="#a0cfec"/><stop offset="1" stop-color="#bcdaf1"/><stop offset="1" stop-color="#c7def3"/><stop offset="1" stop-color="#c2dcf2"/><stop offset="1" stop-color="#c3dcf2"/><stop offset="1" stop-color="#cce0f4"/></linearGradient></defs><path class="cls-1" d="M184.89,81.84a144.51,144.51,0,0,1-4.46,35.72c0,.1-.06.19-.08.28a143,143,0,0,1-13.43,33.73h0a71.57,71.57,0,0,1-18-7.36,72.34,72.34,0,0,1-13.48-10.08,106.61,106.61,0,0,0,7.33-16.29,107.59,107.59,0,0,0,6.15-36,36,36,0,0,1,29.29-35.37,2.42,2.42,0,0,1,2.78,1.8A143.94,143.94,0,0,1,184.89,81.84Z"/><path class="cls-2" d="M91.11,134.13a72.34,72.34,0,0,1-13.48,10.08,71.57,71.57,0,0,1-18,7.36h0a143,143,0,0,1-13.43-33.73c0-.09-.06-.18-.08-.28a145.31,145.31,0,0,1-.53-69.29,2.42,2.42,0,0,1,2.78-1.8A36,36,0,0,1,77.63,81.84a107.6,107.6,0,0,0,13.48,52.29Z"/><path class="cls-3" d="M167.27,150.92c-.42.76-.85,1.52-1.28,2.27a144.06,144.06,0,0,1-16.73,23.23q-1.47,1.68-3,3.31a3.2,3.2,0,0,1-3.57.74,107.79,107.79,0,0,1-28.52-18,1.37,1.37,0,0,0-1.82,0,107.79,107.79,0,0,1-28.52,18,3.2,3.2,0,0,1-3.57-.74q-1.53-1.64-3-3.31a144.06,144.06,0,0,1-16.73-23.23c-.43-.75-.86-1.51-1.28-2.27a71.5,71.5,0,0,0,18-7.36,72.52,72.52,0,0,0,26.37-26.37c6.12-10.59,9.63-18.11,9.63-31.22,0,13.11,3.51,20.63,9.63,31.22a72.52,72.52,0,0,0,26.37,26.37A71.5,71.5,0,0,0,167.27,150.92Z"/></svg>